PathFileType	4	(X/Y/Z)	D:\TRACE\v60_Jaco2_6-2-23\JustArmDRS_Motion3_4-platform.trc
DataRate	CameraRate	NumFrames	NumMarkers	Units	OrigDataRate	OrigDataStartFrame	OrigNumFrames
100.00	100.00	      54	5	mm	100.00	4376	      7000
Frame#	Time	Left_Front			Right_Front			Left_Aft			Right_Aft			Post			
		X1	Y1	Z1	X2	Y2	Z2	X3	Y3	Z3	X4	Y4	Z4	X5	Y5	Z5	

4376	43.750	-757.69916	-22.83959	-657.51080	812.43268	-23.67347	-634.71405	-689.37103	32.51492	475.17184	725.44098	34.51284	580.71783	38.06967	1258.24158	-1031.93994	
4377	43.760	-758.07831	-21.93190	-657.43646	812.26721	-22.86441	-634.71332	-689.51190	31.81611	475.37076	724.96350	33.68382	580.94135	38.39699	1259.90930	-1030.24133	
4378	43.770	-758.30524	-20.84231	-657.29358	811.97345	-21.88322	-634.57556	-689.84082	31.31775	475.52591	725.10107	33.14864	581.22815	37.79549	1261.32776	-1028.90137	
4379	43.780	-758.84949	-19.96724	-657.31781	811.75238	-21.10596	-634.32745	-690.11340	30.66117	475.90338	724.76282	32.33680	581.47925	37.85929	1262.97449	-1026.76587	
4380	43.790	-759.28925	-18.91314	-656.87079	811.46082	-20.07494	-634.15088	-690.19690	29.68120	476.51044	724.34149	31.50271	581.73499	37.44992	1263.97461	-1025.37512	
4381	43.800	-759.01978	-18.23313	-656.45068	811.25732	-19.20991	-633.90393	-690.54584	28.92753	477.05948	724.20764	30.87297	581.97260	37.00657	1265.70337	-1023.35455	
4382	43.810	-759.47961	-17.17755	-656.50488	810.84601	-18.15643	-633.75647	-690.65399	28.29504	477.24463	723.99658	30.12165	582.17621	36.78150	1267.15588	-1021.40045	
4383	43.820	-759.83008	-16.20190	-656.67188	810.70117	-17.28644	-633.48352	-690.98462	27.56451	477.41888	723.60217	29.12154	582.51666	36.47277	1268.74304	-1019.23083	
4384	43.830	-759.70892	-15.36230	-656.20441	810.28583	-16.31614	-633.35742	-691.29028	26.89542	477.61456	723.42584	28.52705	582.68420	36.30700	1270.11487	-1017.15656	
4385	43.840	-760.08258	-14.09337	-655.79395	810.21143	-15.34945	-633.17700	-691.58673	26.45642	477.85492	723.00775	27.75872	582.96753	36.19019	1271.58826	-1014.85974	
4386	43.850	-760.54968	-13.41495	-655.70068	809.88055	-14.26984	-632.81323	-691.93951	25.73421	478.08069	722.76068	26.67196	583.22589	35.37373	1273.37463	-1012.78705	
4387	43.860	-760.97955	-12.38770	-655.76270	809.41833	-13.37092	-632.68121	-692.20453	25.02258	478.32202	722.56378	26.15887	583.63342	35.44287	1274.68530	-1010.37524	
4388	43.870	-761.49445	-11.01267	-655.50562	809.02118	-12.27576	-632.48071	-692.51440	24.28896	478.59753	721.93524	25.21187	583.83026	34.14920	1276.03992	-1008.07013	
4389	43.880	-761.71295	-10.40923	-655.22467	808.88153	-11.37394	-632.35168	-692.95612	23.53665	478.92587	721.71991	24.37544	584.10309	34.26138	1277.69177	-1005.75653	
4390	43.890	-761.82288	-9.38390	-654.75891	808.46967	-10.25022	-632.11908	-693.21454	22.96898	479.12689	721.49689	23.76060	584.40436	34.26226	1279.38721	-1003.64246	
4391	43.900	-762.24500	-8.11819	-654.60565	808.15118	-9.27453	-632.04987	-693.53223	22.17635	479.49097	721.07513	23.02122	584.55157	33.95163	1281.14441	-1001.35730	
4392	43.910	-762.43127	-7.17203	-654.41467	807.65558	-8.24788	-631.80975	-693.87103	21.53091	479.72098	720.29163	21.95951	584.70526	33.54351	1282.70850	-999.23987	
4393	43.920	-762.80371	-6.32860	-654.17371	807.70660	-7.26539	-631.78625	-694.33386	21.01137	479.91138	720.02887	21.10795	585.20007	32.90218	1284.27820	-997.03479	
4394	43.930	-763.17114	-6.49037	-654.36859	806.88934	-6.16306	-631.31451	-694.66583	20.14571	480.12646	719.37878	20.35797	585.49103	32.71780	1285.81995	-994.88159	
4395	43.940	-763.38214	-4.75561	-653.94812	806.49377	-5.12651	-631.16455	-694.97253	19.22491	480.55936	718.97308	19.55640	585.67987	31.97694	1287.35950	-992.93909	
4396	43.950	-764.35437	-2.33476	-653.70038	806.10779	-4.08278	-630.84875	-695.46857	18.82250	480.64542	718.99438	18.77018	586.00262	32.12167	1289.07715	-990.61377	
4397	43.960	-764.53381	-1.64213	-653.52032	805.85461	-2.97172	-630.61017	-695.93359	18.20635	481.00378	718.29993	17.77351	586.13544	31.42023	1290.53210	-988.64478	
4398	43.970	-764.93286	-0.79192	-653.22345	805.48553	-1.94614	-630.42639	-695.84772	17.29967	481.26453	718.12183	16.87968	586.44946	31.41306	1292.05762	-986.20544	
4399	43.980	-765.56830	0.85832	-652.73273	805.00348	-0.96812	-630.19971	-696.46289	16.50383	481.30887	717.77362	16.37515	586.75677	30.54460	1293.75244	-984.27942	
4400	43.990	-766.04858	1.51804	-652.49768	804.91205	-0.15438	-630.18939	-696.95953	15.87091	481.64810	717.18726	15.20069	587.05261	30.19617	1295.22388	-981.85596	
4401	44.000	-766.12390	2.35231	-652.20087	804.23383	1.19346	-629.79541	-697.25580	15.34637	482.05341	716.84338	14.55443	587.27283	29.57722	1296.98035	-979.62366	
4402	44.010	-766.38110	3.48453	-652.03156	804.20496	2.09953	-629.77197	-697.80304	14.63238	482.18964	716.42657	13.43796	587.43872	29.33710	1298.50964	-977.13025	
4403	44.020	-766.94025	4.77916	-652.05695	803.53821	3.20663	-629.28210	-698.10229	13.61376	482.62131	716.31342	12.85569	587.72504	29.06947	1299.87646	-974.65295	
4404	44.030	-767.36041	5.78112	-651.79779	803.17773	4.10161	-628.99597	-698.40186	13.15567	482.72083	716.04382	11.97334	588.17566	28.59734	1301.57703	-972.32605	
4405	44.040	-767.49890	6.66504	-651.08344	802.72839	5.15443	-628.88348	-698.86688	12.62587	482.89795	715.34930	11.00931	588.34521	28.18641	1303.13879	-969.84393	
4406	44.050	-768.10217	7.59187	-651.48157	802.40009	6.24916	-628.51837	-699.07227	11.79770	483.21497	715.12494	10.36290	588.53687	27.98155	1304.49341	-967.65308	
4407	44.060	-768.54535	8.88375	-651.00085	801.96765	7.10390	-628.38916	-699.55444	10.97085	483.38092	714.80438	9.44352	588.83643	27.57652	1306.00842	-965.43689	
4408	44.070	-768.93781	9.71545	-650.68488	801.57068	8.01826	-627.98596	-699.88153	10.49873	483.65314	714.36890	8.77131	589.03119	27.01348	1307.32703	-963.27948	
4409	44.080	-768.88885	10.51788	-650.40985	801.27869	9.14015	-627.87921	-700.38885	9.76633	483.88739	713.89929	7.88922	589.23163	26.52915	1308.99792	-961.27094	
4410	44.090	-769.15320	11.60770	-650.12042	800.97430	10.09235	-627.53717	-700.52997	8.90189	484.23752	713.52087	7.06339	589.44849	26.27816	1310.29041	-959.31030	
4411	44.100	-770.06970	12.82433	-649.71899	800.77856	11.13518	-627.30719	-700.89545	8.38431	484.55347	713.12482	6.08762	589.65192	26.01670	1311.87097	-957.44873	
4412	44.110	-770.51379	13.71512	-649.97351	800.35718	11.85380	-627.02551	-701.20081	7.75760	484.82770	713.02106	5.62008	589.90900	25.65707	1313.28577	-955.27045	
4413	44.120	-770.79755	14.86043	-649.57886	799.97717	12.97935	-626.95569	-701.62915	7.09395	484.94305	712.44098	4.85820	590.09027	25.26035	1314.45667	-953.42798	
4414	44.130	-770.85016	15.59079	-649.45416	799.70428	13.84279	-626.77301	-702.12146	6.91505	484.55423	712.16614	3.87887	590.24036	24.48424	1315.94849	-950.89215	
4415	44.140	-771.10077	16.43700	-649.39319	799.22644	14.70684	-626.55536	-702.08368	5.73035	485.45953	711.96869	3.25281	590.47296	24.40644	1316.89636	-949.14490	
4416	44.150	-771.31873	17.44819	-649.03253	798.86694	15.41448	-626.40082	-702.53888	5.31989	485.56885	711.52167	2.52240	590.77466	24.27549	1318.67090	-946.84058	
4417	44.160	-771.67688	18.28117	-648.68988	798.52307	16.55401	-626.24567	-702.86530	4.67384	485.81528	711.32153	1.72358	590.94049	23.96093	1319.68372	-944.90643	
4418	44.170	-772.12054	19.03597	-648.38831	798.13812	17.39021	-625.97681	-702.70966	4.03061	485.90033	710.74011	1.02023	591.23865	23.38706	1320.91492	-942.78503	
4419	44.180	-772.41895	19.85232	-648.07745	797.79865	18.13622	-625.78674	-703.71295	3.81919	485.59641	710.72333	0.35428	591.33313	22.88562	1322.08228	-940.84753	
4420	44.190	-772.47479	20.69958	-647.83960	797.62317	18.82354	-625.53503	-703.94135	3.29278	485.86115	710.49603	-0.33070	591.44580	22.84514	1323.55273	-938.81781	
4421	44.200	-773.01941	21.81966	-647.69196	797.47400	19.69461	-625.30884	-704.19080	2.93429	485.98715	710.25354	-1.12500	591.81946	22.58808	1324.62952	-937.14313	
4422	44.210	-772.96826	22.52090	-647.74780	797.14972	20.46485	-625.02155	-704.61444	2.40910	486.15399	710.07281	-1.50437	591.89630	22.57116	1325.64905	-935.27704	
4423	44.220	-773.15082	23.21387	-647.42358	796.95227	21.19584	-624.83112	-704.73969	1.76211	486.41684	709.64990	-2.25773	592.02472	22.07239	1326.88770	-933.56934	
4424	44.230	-773.54114	23.77738	-647.34558	797.05560	22.35026	-624.56915	-705.02948	1.29586	486.50394	709.72491	-3.19623	592.13434	21.63404	1328.24841	-931.78644	
4425	44.240	-773.93060	24.40903	-647.31018	796.81134	22.94464	-624.32068	-705.34991	0.82092	486.53192	709.39130	-3.65890	592.29993	21.50643	1329.12976	-930.44794	
4426	44.250	-774.00757	25.64011	-647.24774	796.68927	23.71978	-624.08301	-705.44421	0.20334	486.65219	709.09619	-4.00841	592.46619	21.32436	1330.18286	-928.62805	
4427	44.260	-774.26227	26.49716	-646.92169	796.45398	24.42131	-623.95612	-705.57233	-0.31910	486.95645	708.90991	-4.56138	592.75958	21.17279	1331.21948	-927.19775	
4428	44.270	-774.67712	26.97342	-646.50372	796.22076	25.15390	-623.73053	-705.58691	-0.73904	487.06540	708.73053	-5.37743	593.01202	21.09636	1332.16089	-925.98682	
4429	44.280	-774.63580	27.43747	-646.44666	796.14935	25.86246	-623.62073	-705.73462	-1.25771	487.19427	708.38947	-5.99282	593.04535	20.86628	1333.16870	-924.21442	
